<svg id="visual" viewBox="0 0 1920.183 1075.636" width="1920.183" height="1075.636" xmlns="http://www.w3.org/2000/svg" xmlns:xlink="http://www.w3.org/1999/xlink" version="1.1"><rect x="0" y="0" width="1920.183" height="1075.636" fill="#ffffff"></rect><path d="M0 158L45.7 155C91.3 152 182.7 146 274.2 186.7C365.7 227.3 457.3 314.7 548.8 345.7C640.3 376.7 731.7 351.3 823 307.3C914.3 263.3 1005.7 200.7 1097.2 203.8C1188.7 207 1280.3 276 1371.8 302C1463.3 328 1554.7 311 1646 316.2C1737.3 321.3 1828.7 348.7 1874.3 362.3L1920 376L1920 0L1874.3 0C1828.7 0 1737.3 0 1646 0C1554.7 0 1463.3 0 1371.8 0C1280.3 0 1188.7 0 1097.2 0C1005.7 0 914.3 0 823 0C731.7 0 640.3 0 548.8 0C457.3 0 365.7 0 274.2 0C182.7 0 91.3 0 45.7 0L0 0Z" fill="#193662" stroke-linecap="round" stroke-linejoin="miter"></path></svg>