<svg id="visual" viewBox="0 0 1920.183 1075.636" width="1920.183" height="1075.636" xmlns="http://www.w3.org/2000/svg" xmlns:xlink="http://www.w3.org/1999/xlink" version="1.1"><rect x="0" y="0" width="1920.183" height="1075.636" fill="#ffffff"></rect><path d="M0 318L45.7 312C91.3 306 182.7 294 274.2 375C365.7 456 457.3 630 548.8 691.7C640.3 753.3 731.7 702.7 823 614.8C914.3 527 1005.7 402 1097.2 408.5C1188.7 415 1280.3 553 1371.8 605.2C1463.3 657.3 1554.7 623.7 1646 634.2C1737.3 644.7 1828.7 699.3 1874.3 726.7L1920 754L1920 0L1874.3 0C1828.7 0 1737.3 0 1646 0C1554.7 0 1463.3 0 1371.8 0C1280.3 0 1188.7 0 1097.2 0C1005.7 0 914.3 0 823 0C731.7 0 640.3 0 548.8 0C457.3 0 365.7 0 274.2 0C182.7 0 91.3 0 45.7 0L0 0Z" fill="#193662" stroke-linecap="round" stroke-linejoin="miter"></path></svg>